# xmcd
#
# Track frame offsets: 
#        150
#        19333
#        48295
#        71547
#        97286
#        116047
#        138845
#        165344
#        184553
#
# Disc length: 2692 seconds
#
# Revision: 0
# Processed by: cddbd v1.5.2PL0 Copyright (c) Steve Scherf et al.
# Submitted via: ExactAudioCopyFreeDBPlugin 1.0
#
DISCID=750a8209
DTITLE=ANTHEM - HUNTING TIME
DYEAR=2019
DGENRE=HEAVY METAL
TTITLE0=THE JUGGLER
TTITLE1=HUNTING TIME
TTITLE2=EVIL TOUCH
TTITLE3=TEARS FOR THE LOVERS
TTITLE4=SLEEPLESS NIGHT
TTITLE5=JAIL BREAK (GOIN' FOR BROKE)
TTITLE6=LET YOUR HEART BEAT
TTITLE7=BOTTLE BOTTOM
TTITLE8=ARE YOU READY?
EXTD=
EXTT0=
EXTT1=
EXTT2=
EXTT3=
EXTT4=
EXTT5=
EXTT6=
EXTT7=
EXTT8=
PLAYORDER=
